<?xml version="1.0" encoding="UTF-8"?>
<!DOCTYPE svg PUBLIC "-//W3C//DTD SVG 1.1//EN" "http://www.w3.org/Graphics/SVG/1.1/DTD/svg11.dtd">
<!-- Creator: CorelDRAW X6 -->
<svg xmlns="http://www.w3.org/2000/svg" xml:space="preserve" width="200px" height="283px" version="1.1" style="shape-rendering:geometricPrecision; text-rendering:geometricPrecision; image-rendering:optimizeQuality; fill-rule:evenodd; clip-rule:evenodd"
viewBox="0 0 200 283"
 xmlns:xlink="http://www.w3.org/1999/xlink"
 enable-background="new 0 0 800 600">
 <defs>
  <style type="text/css">
   <![CDATA[
    .fil5 {fill:#3F3F3F}
    .fil1 {fill:#60000C}
    .fil13 {fill:#62000B}
    .fil4 {fill:#B2B2B2}
    .fil0 {fill:#EA8383}
    .fil12 {fill:#FF887F}
    .fil14 {fill:#FFA29F}
    .fil3 {fill:#FFC3BF}
    .fil6 {fill:url(#id0)}
    .fil7 {fill:url(#id1)}
    .fil17 {fill:url(#id2)}
    .fil18 {fill:url(#id3)}
    .fil23 {fill:url(#id4)}
    .fil39 {fill:url(#id5)}
    .fil36 {fill:url(#id6)}
    .fil37 {fill:url(#id7)}
    .fil24 {fill:url(#id8)}
    .fil38 {fill:url(#id9)}
    .fil20 {fill:url(#id10)}
    .fil40 {fill:url(#id11)}
    .fil31 {fill:url(#id12)}
    .fil28 {fill:url(#id13)}
    .fil19 {fill:url(#id14)}
    .fil21 {fill:url(#id15)}
    .fil35 {fill:url(#id16)}
    .fil32 {fill:url(#id17)}
    .fil34 {fill:url(#id18)}
    .fil33 {fill:url(#id19)}
    .fil29 {fill:url(#id20)}
    .fil22 {fill:url(#id21)}
    .fil26 {fill:url(#id22)}
    .fil25 {fill:url(#id23)}
    .fil27 {fill:url(#id24)}
    .fil30 {fill:url(#id25)}
    .fil42 {fill:url(#id26)}
    .fil41 {fill:url(#id27)}
    .fil8 {fill:url(#id28)}
    .fil43 {fill:url(#id29)}
    .fil44 {fill:url(#id30)}
    .fil15 {fill:url(#id31)}
    .fil16 {fill:url(#id32)}
    .fil11 {fill:url(#id33)}
    .fil10 {fill:url(#id34)}
    .fil9 {fill:url(#id35)}
    .fil2 {fill:url(#id36)}
   ]]>
  </style>
  <linearGradient id="id0" gradientUnits="userSpaceOnUse" x1="93.5103" y1="137.614" x2="95.1511" y2="137.614">
   <stop offset="0" style="stop-color:#F0CFDE"/>
   <stop offset="1" style="stop-color:#FFF5ED"/>
  </linearGradient>
  <linearGradient id="id1" gradientUnits="userSpaceOnUse" x1="117.531" y1="139.297" x2="118.974" y2="139.297">
   <stop offset="0" style="stop-color:#F0CFDE"/>
   <stop offset="1" style="stop-color:#FFF5ED"/>
  </linearGradient>
  <linearGradient id="id2" gradientUnits="userSpaceOnUse" x1="98.4521" y1="164.469" x2="98.4521" y2="208.363">
   <stop offset="0" style="stop-color:#FF8174"/>
   <stop offset="0.0117647" style="stop-color:#FF8174"/>
   <stop offset="1" style="stop-color:#B20404"/>
  </linearGradient>
  <linearGradient id="id3" gradientUnits="userSpaceOnUse" xlink:href="#id2" x1="81.845" y1="176.521" x2="81.845" y2="189.718">
  </linearGradient>
  <linearGradient id="id4" gradientUnits="userSpaceOnUse" xlink:href="#id2" x1="83.6082" y1="173.827" x2="83.6082" y2="176.852">
  </linearGradient>
  <linearGradient id="id5" gradientUnits="userSpaceOnUse" xlink:href="#id2" x1="83.1612" y1="188.925" x2="83.1612" y2="193.012">
  </linearGradient>
  <linearGradient id="id6" gradientUnits="userSpaceOnUse" xlink:href="#id2" x1="84.6391" y1="193.272" x2="84.6391" y2="193.93">
  </linearGradient>
  <linearGradient id="id7" gradientUnits="userSpaceOnUse" xlink:href="#id2" x1="85.4056" y1="193.971" x2="85.4056" y2="194.41">
  </linearGradient>
  <linearGradient id="id8" gradientUnits="userSpaceOnUse" xlink:href="#id2" x1="91.3315" y1="165.929" x2="91.3315" y2="174.459">
  </linearGradient>
  <linearGradient id="id9" gradientUnits="userSpaceOnUse" xlink:href="#id2" x1="86.2292" y1="194.442" x2="86.2292" y2="194.78">
  </linearGradient>
  <linearGradient id="id10" gradientUnits="userSpaceOnUse" xlink:href="#id2" x1="88.5988" y1="183.605" x2="88.5988" y2="186.026">
  </linearGradient>
  <linearGradient id="id11" gradientUnits="userSpaceOnUse" xlink:href="#id2" x1="91.2106" y1="173.756" x2="91.2106" y2="179.341">
  </linearGradient>
  <linearGradient id="id12" gradientUnits="userSpaceOnUse" xlink:href="#id2" x1="95.0632" y1="191.921" x2="95.0632" y2="197.989">
  </linearGradient>
  <linearGradient id="id13" gradientUnits="userSpaceOnUse" xlink:href="#id2" x1="99.7039" y1="173.121" x2="99.7039" y2="192.702">
  </linearGradient>
  <linearGradient id="id14" gradientUnits="userSpaceOnUse" xlink:href="#id2" x1="93.0858" y1="184.157" x2="93.0858" y2="188.599">
  </linearGradient>
  <linearGradient id="id15" gradientUnits="userSpaceOnUse" xlink:href="#id2" x1="94.4661" y1="188.361" x2="94.4661" y2="194.884">
  </linearGradient>
  <linearGradient id="id16" gradientUnits="userSpaceOnUse" xlink:href="#id2" x1="96.6949" y1="188.654" x2="96.6949" y2="189.292">
  </linearGradient>
  <linearGradient id="id17" gradientUnits="userSpaceOnUse" xlink:href="#id2" x1="98.2293" y1="192.291" x2="98.2293" y2="193.204">
  </linearGradient>
  <linearGradient id="id18" gradientUnits="userSpaceOnUse" xlink:href="#id2" x1="97.0896" y1="189.701" x2="97.0896" y2="190.53">
  </linearGradient>
  <linearGradient id="id19" gradientUnits="userSpaceOnUse" xlink:href="#id2" x1="97.3878" y1="190.815" x2="97.3878" y2="192.059">
  </linearGradient>
  <linearGradient id="id20" gradientUnits="userSpaceOnUse" xlink:href="#id2" x1="103.38" y1="182.212" x2="103.38" y2="189.714">
  </linearGradient>
  <linearGradient id="id21" gradientUnits="userSpaceOnUse" xlink:href="#id2" x1="107.014" y1="192.17" x2="107.014" y2="205.637">
  </linearGradient>
  <linearGradient id="id22" gradientUnits="userSpaceOnUse" xlink:href="#id2" x1="109.883" y1="169.641" x2="109.883" y2="178.853">
  </linearGradient>
  <linearGradient id="id23" gradientUnits="userSpaceOnUse" xlink:href="#id2" x1="113.072" y1="171.338" x2="113.072" y2="190.01">
  </linearGradient>
  <linearGradient id="id24" gradientUnits="userSpaceOnUse" xlink:href="#id2" x1="110.384" y1="177.16" x2="110.384" y2="182.614">
  </linearGradient>
  <linearGradient id="id25" gradientUnits="userSpaceOnUse" xlink:href="#id2" x1="114.952" y1="179.216" x2="114.952" y2="187.354">
  </linearGradient>
  <linearGradient id="id26" gradientUnits="userSpaceOnUse" xlink:href="#id2" x1="110.964" y1="190.502" x2="109.913" y2="198.449">
  </linearGradient>
  <linearGradient id="id27" gradientUnits="userSpaceOnUse" xlink:href="#id2" x1="114.975" y1="190.222" x2="112.971" y2="205.766">
  </linearGradient>
  <linearGradient id="id28" gradientUnits="userSpaceOnUse" x1="92.8488" y1="209.427" x2="104.762" y2="137.526">
   <stop offset="0" style="stop-color:#FF655F"/>
   <stop offset="1" style="stop-color:#B20404"/>
  </linearGradient>
  <linearGradient id="id29" gradientUnits="userSpaceOnUse" xlink:href="#id2" x1="112.818" y1="195.617" x2="112.224" y2="200.221">
  </linearGradient>
  <linearGradient id="id30" gradientUnits="userSpaceOnUse" xlink:href="#id2" x1="118.046" y1="194.499" x2="116.896" y2="203.42">
  </linearGradient>
  <linearGradient id="id31" gradientUnits="userSpaceOnUse" x1="98.3896" y1="141.331" x2="95.9612" y2="166.748">
   <stop offset="0" style="stop-color:#D92814"/>
   <stop offset="1" style="stop-color:#880006"/>
  </linearGradient>
  <linearGradient id="id32" gradientUnits="userSpaceOnUse" x1="110.511" y1="162.275" x2="84.0043" y2="144.604">
   <stop offset="0" style="stop-color:#F0CFDE"/>
   <stop offset="1" style="stop-color:#FFF5ED"/>
  </linearGradient>
  <linearGradient id="id33" gradientUnits="userSpaceOnUse" x1="127.698" y1="198.471" x2="124.936" y2="209.212">
   <stop offset="0" style="stop-color:#BF0014"/>
   <stop offset="1" style="stop-color:#5F0006"/>
  </linearGradient>
  <linearGradient id="id34" gradientUnits="userSpaceOnUse" x1="123.389" y1="171.434" x2="132.498" y2="172.506">
   <stop offset="0" style="stop-color:#BF0000"/>
   <stop offset="0.988235" style="stop-color:#F09A95"/>
   <stop offset="1" style="stop-color:#F09A95"/>
  </linearGradient>
  <linearGradient id="id35" gradientUnits="userSpaceOnUse" xlink:href="#id33" x1="119.716" y1="173.524" x2="126.876" y2="174.5">
  </linearGradient>
  <linearGradient id="id36" gradientUnits="userSpaceOnUse" xlink:href="#id34" x1="81.549" y1="166.573" x2="90.3957" y2="168.887">
  </linearGradient>
 </defs>
 <g id="Слой_x0020_1">
  <metadata id="CorelCorpID_0Corel-Layer"/>
  <g id="_612158432">
   <g id="Layer_2">
    <polygon class="fil0" points="130,138 87,135 87,199 132,204 "/>
    <polygon class="fil1" points="85,137 79,138 77,200 84,201 "/>
    <polygon class="fil2" points="88,135 84,137 84,200 88,201 "/>
    <rect class="fil3" transform="matrix(0.0722 -0.9974 0.9974 0.0722 87.4367 134.717)" width="0" height="42"/>
    <circle class="fil4" transform="matrix(0.9876 0.1571 -0.1571 0.9876 94.6829 137.079)" r="1"/>
    <circle class="fil5" transform="matrix(0.9876 0.157 -0.157 0.9876 94.6908 137.102)" r="1"/>
    <circle class="fil4" transform="matrix(0.989 0.1479 -0.1479 0.989 118.282 138.644)" r="1"/>
    <circle class="fil5" transform="matrix(0.989 0.1482 -0.1482 0.989 118.301 138.665)" r="1"/>
    <path class="fil6" d="M95 138c0,0 0,-1 0,-1 0,0 -1,1 -1,1 0,0 1,1 1,1 0,0 1,0 1,-1z"/>
    <path class="fil7" d="M119 139c0,0 0,-1 -1,-1 0,0 -1,1 -1,1 0,0 1,0 1,0 0,0 0,-1 0,-1z"/>
   </g>
   <polygon class="fil8" points="121,142 78,138 76,201 121,209 "/>
   <polygon class="fil9" points="124,139 121,142 121,209 126,207 "/>
   <polygon class="fil10" points="130,138 124,139 126,206 132,204 "/>
   <polygon class="fil11" points="121,209 132,204 125,199 "/>
   <rect class="fil12" x="121" y="142" width="0" height="68"/>
   <rect class="fil13" transform="matrix(0.9998 -0.0207 0.0207 0.9998 123.971 138.991)" width="0" height="60"/>
   <rect class="fil14" transform="matrix(0.0805 -0.9968 0.9968 0.0805 77.9612 138.169)" width="0" height="43"/>
   <circle class="fil4" transform="matrix(0.9876 0.1568 -0.1568 0.9876 86.0957 140.831)" r="1"/>
   <circle class="fil5" transform="matrix(0.9876 0.1568 -0.1568 0.9876 86.1078 140.851)" r="1"/>
   <circle class="fil4" transform="matrix(0.989 0.1478 -0.1478 0.989 109.7 142.393)" r="1"/>
   <circle class="fil5" transform="matrix(0.989 0.148 -0.148 0.989 109.718 142.413)" r="1"/>
   <g>
    <path class="fil15" d="M86 142c0,0 0,1 0,1 0,1 0,1 0,2 0,1 0,3 0,4 0,3 0,5 0,8 0,3 2,5 4,7 2,2 5,3 8,3 1,0 2,0 2,0 2,0 4,-2 6,-3 1,-1 1,-1 1,-2 0,-1 1,-1 1,-2 0,-1 0,-2 1,-3 0,-2 0,-5 1,-7 0,-1 0,-2 1,-3 0,-1 1,-2 1,-2 0,-1 -2,1 -2,1 0,1 -1,2 -1,3 0,2 -1,4 -1,7 0,1 0,3 -1,4 0,1 -1,2 -1,3 -1,2 -3,3 -5,4 -1,0 -2,1 -2,1 -6,0 -10,-4 -11,-9 0,-2 0,-5 0,-8 0,-1 0,-2 0,-4 0,-1 0,-2 0,-3z"/>
   </g>
   <g>
    <path class="fil16" d="M86 141c0,0 0,1 -1,1 0,2 -1,4 -1,5 0,2 0,4 0,6 0,1 0,2 0,3 0,0 0,0 0,0 1,5 4,9 9,9 5,1 9,-4 11,-8 1,-3 1,-6 2,-8 0,-2 1,-6 3,-6 0,0 0,-1 0,-1 -2,0 -2,1 -3,3 -1,2 -1,5 -1,7 0,3 -1,5 -3,8 -1,2 -4,5 -6,5 -6,1 -10,-4 -11,-9 0,-2 0,-5 0,-8 0,-1 0,-2 0,-4 0,-1 0,-1 0,-2 0,0 0,-1 0,-1 0,0 0,0 0,0z"/>
   </g>
   <g>
    <path class="fil17" d="M121 207c-2,1 -4,1 -6,0 -2,-1 -4,-2 -5,-3 -5,-5 1,-15 -5,-23 -12,-17 -28,-3 -21,10 2,3 8,6 11,4 2,-1 2,-4 1,-6 -1,-2 -3,-3 -6,-2 -3,1 -1,4 1,3 1,-1 -1,-2 -1,-2 -2,-1 4,-2 5,1 4,7 -7,9 -11,1 -5,-9 1,-15 8,-16 5,-1 14,6 15,15 1,5 -1,13 4,17 2,2 5,3 7,3 1,0 2,0 3,-1z"/>
    <path class="fil18" d="M85 177c-1,0 -5,3 -4,4 0,1 2,0 1,1 0,0 -2,3 -2,3 0,0 1,0 1,0 0,1 0,2 0,3 0,1 0,0 1,0 0,0 0,1 0,2 0,0 -1,0 -2,0 0,0 1,0 1,0 2,0 1,-4 1,-5 0,-3 1,-6 3,-8z"/>
    <path class="fil19" d="M96 189c0,0 -1,-2 -1,-2 0,0 0,1 0,0 0,0 -1,-2 -1,-1 0,0 0,0 0,0 0,0 -1,-1 -1,-1 0,0 0,0 0,0 0,0 -1,0 -1,0 0,0 0,-1 0,-1 0,0 0,0 0,0 0,1 2,1 2,1 2,0 3,1 3,3z"/>
    <path class="fil20" d="M90 186c-1,0 -2,0 -3,-1 0,0 -1,-1 -1,-1 0,0 1,0 1,0 0,0 1,1 1,1 0,0 0,0 0,0 0,0 1,1 1,1 0,0 0,0 1,1z"/>
    <path class="fil21" d="M93 194c2,0 4,-1 3,-3 0,-1 -3,-3 -3,-1 0,1 2,2 2,0 0,0 -1,-1 0,-1 0,0 1,1 1,1 0,0 0,1 0,1 0,0 0,0 -1,0 0,0 0,1 0,1 0,1 0,1 -1,2 0,0 -1,1 -2,0z"/>
    <path class="fil22" d="M110 206c-1,0 -5,-3 -5,-4 0,-1 2,1 1,0 0,0 -3,-3 -2,-4 0,0 1,0 1,0 0,-1 -1,-2 0,-3 0,-1 0,0 1,0 0,0 0,-1 0,-2 0,0 -1,0 -2,0 0,0 1,0 1,0 2,1 1,4 1,5 0,3 1,6 3,8z"/>
    <path class="fil23" d="M86 175c0,1 -2,2 -3,2 -1,0 -1,-2 0,-2 1,0 1,1 0,1 0,0 0,-1 0,0 0,0 0,1 0,1 0,0 1,0 1,0 0,0 0,0 0,0 0,0 1,0 1,0 0,0 1,0 1,0 0,0 1,-1 1,-1z"/>
    <path class="fil24" d="M97 174c-3,-2 -11,-1 -12,-5 0,-2 1,-3 2,-3 1,0 2,0 1,0 -1,0 -1,2 -2,2 -1,0 -1,-1 -2,1 -1,3 5,4 5,4 0,0 -1,0 -2,-1 -1,-1 -1,-1 -1,-2 0,-1 2,0 3,1 1,1 0,-1 0,-1 0,-1 2,0 3,2 0,0 1,1 0,0 0,-1 -1,-1 1,0 1,1 1,2 2,3z"/>
    <path class="fil25" d="M109 189c2,-2 -2,-8 -1,-12 1,-4 4,-6 8,-6 3,1 3,2 3,3 0,2 -2,3 -3,1 0,1 2,2 3,0 1,-2 -1,-4 -3,-4 -3,-1 -7,2 -8,6 -1,4 2,9 1,12 0,0 1,0 1,-1z"/>
    <path class="fil26" d="M107 179c0,-1 -1,-4 0,-4 1,0 1,1 1,0 0,0 0,-3 1,-3 0,0 0,1 0,0 0,0 1,-1 1,-1 0,0 0,0 0,0 0,0 1,-1 1,-1 0,0 0,-1 -1,-1 0,0 1,0 1,1 1,2 -2,3 -2,3 -2,2 -3,3 -3,6z"/>
    <path class="fil27" d="M109 183c-2,-1 -2,-4 0,-5 1,-1 4,0 3,1 -1,1 -2,0 -1,-1 0,0 1,0 0,0 0,0 -1,0 -1,0 0,0 -1,1 -1,1 0,0 1,0 0,0 0,0 -1,0 -1,1 0,0 -1,1 -1,2 0,0 0,1 1,2z"/>
    <path class="fil28" d="M94 179c0,0 0,0 1,0 1,1 0,1 -1,1 -1,0 -1,-2 0,-2 2,-1 3,3 1,4 -1,1 -2,1 -3,0 -3,-2 -1,-6 2,-7 8,-2 16,8 14,17 0,0 -1,1 -1,1 1,-5 -1,-13 -6,-16 -4,-3 -7,-3 -10,0 -2,2 -1,5 2,5 3,0 3,-5 0,-4 -1,1 0,1 0,1z"/>
    <path class="fil29" d="M106 190c1,-2 -1,-7 -3,-7 -1,0 -3,1 -2,3 0,2 0,2 0,2 0,0 2,-1 1,-3 0,-1 -1,-1 -1,-1 0,0 1,-1 1,-1 1,0 2,1 2,1 0,0 -2,0 -2,0 1,0 4,3 4,6z"/>
    <path class="fil30" d="M110 187c0,-1 1,-5 2,-5 1,0 0,2 1,1 0,0 2,-3 3,-2 0,0 0,1 0,1 1,0 2,-1 2,-1 1,0 0,0 0,1 1,0 1,0 2,-1 0,-1 0,-1 0,-1 0,0 1,1 1,1 0,2 -3,2 -4,2 -3,1 -5,2 -6,5z"/>
    <path class="fil31" d="M89 195c2,3 7,-2 10,-1 1,1 1,2 1,3 -1,1 -3,1 -2,0 0,1 1,2 2,1 1,-1 1,-3 0,-4 -3,-2 -5,2 -7,1 0,0 -2,0 -3,0 0,0 -1,0 -1,0z"/>
    <path class="fil32" d="M97 193c0,0 1,-1 2,-1 0,0 1,0 1,0 0,0 -1,0 -1,0 0,0 -1,0 -1,0 0,0 0,0 0,0 0,0 -1,0 -1,0 0,0 0,0 -1,0z"/>
    <path class="fil33" d="M98 192c0,0 0,-1 0,-1 0,0 -1,0 -1,0 0,0 0,1 0,1 0,0 1,0 1,0z"/>
    <path class="fil34" d="M97 190c0,0 0,0 0,0 0,0 0,0 0,0 0,0 0,0 0,0 0,0 0,0 0,0z"/>
    <path class="fil35" d="M97 189c0,0 0,0 0,0 0,0 0,0 0,0 0,0 0,0 0,0 0,0 0,0 0,0z"/>
    <path class="fil36" d="M84 194c0,0 0,0 0,0 0,0 0,0 0,0 0,0 0,0 0,0 0,0 0,0 0,0z"/>
    <path class="fil37" d="M85 194c0,0 0,0 0,0 0,0 0,0 0,0 0,0 0,0 0,0 0,0 0,0 0,0z"/>
    <path class="fil38" d="M86 195c0,0 0,0 0,0 0,0 0,0 0,0 0,0 0,0 0,0 0,0 0,0 0,0z"/>
    <path class="fil39" d="M82 189c0,1 0,2 1,3 0,0 1,1 1,1 1,0 0,-1 -1,-1 0,0 -1,-1 -1,-1 0,0 1,0 1,0 0,0 -1,-1 -1,-1 0,0 -1,0 -1,-1z"/>
    <path class="fil40" d="M94 175c0,0 -3,-1 -3,0 0,0 1,1 1,1 0,0 -2,0 -2,1 0,0 0,0 0,0 0,0 -1,1 -1,1 0,0 0,0 0,0 0,0 0,1 -1,1 0,0 -1,0 -1,-1 0,0 0,1 1,1 1,1 2,-1 2,-2 1,-2 2,-2 4,-2z"/>
   </g>
   <g>
    <path class="fil41" d="M116 205c0,-2 -4,-5 -5,-8 -1,-3 1,-6 3,-7 2,-1 3,0 3,1 1,1 -1,3 -2,2 0,1 2,0 2,-1 0,-2 -2,-2 -4,-2 -2,1 -4,3 -3,7 1,3 5,6 5,8 0,0 0,-1 0,-1z"/>
    <path class="fil42" d="M111 198c0,0 -2,-2 -2,-3 0,0 1,1 1,0 0,0 -1,-2 0,-2 0,0 0,0 0,0 0,0 0,-1 0,-1 0,0 0,0 0,0 0,0 0,-1 0,-1 0,0 -1,0 -1,-1 0,0 0,0 1,0 1,1 0,2 0,3 -1,2 -1,3 0,5z"/>
    <path class="fil43" d="M113 200c-2,0 -3,-2 -2,-3 0,-1 3,-1 3,0 0,1 -2,1 -1,0 0,0 1,0 0,0 0,0 -1,0 -1,0 0,0 0,1 0,1 0,0 0,0 0,0 0,0 0,1 0,1 0,0 0,1 0,1 0,0 1,1 1,1z"/>
    <path class="fil44" d="M115 203c0,0 -1,-3 0,-4 1,0 1,1 1,0 0,0 0,-3 1,-2 0,0 0,0 0,0 0,0 1,-1 1,-1 0,0 0,0 0,0 0,0 1,-1 1,-1 0,0 0,-1 -1,-1 0,0 1,0 1,0 1,1 -1,2 -2,3 -2,2 -3,3 -3,5z"/>
   </g>
  </g>
 </g>
</svg>
