<?xml version="1.0" encoding="UTF-8"?>
<!DOCTYPE svg PUBLIC "-//W3C//DTD SVG 1.1//EN" "http://www.w3.org/Graphics/SVG/1.1/DTD/svg11.dtd">
<!-- Creator: CorelDRAW X6 -->
<svg xmlns="http://www.w3.org/2000/svg" xml:space="preserve" width="220px" height="220px" version="1.1" style="shape-rendering:geometricPrecision; text-rendering:geometricPrecision; image-rendering:optimizeQuality; fill-rule:evenodd; clip-rule:evenodd"
viewBox="0 0 1566 1566"
 xmlns:xlink="http://www.w3.org/1999/xlink">
 <defs>
  <style type="text/css">
   <![CDATA[
    .fil1 {fill:#3E1B5D}
    .fil0 {fill:#FCE3FF}
   ]]>
  </style>
    <clipPath id="id0">
     <rect width="1566" height="1566"/>
    </clipPath>
 </defs>
 <g id="Слой_x0020_1">
  <metadata id="CorelCorpID_0Corel-Layer"/>
  <g id="_711091920">
   <g style="clip-path:url(#id0)">
    <image transform="matrix(0.695399 0 0 0.695399 76.493 392.594)" x="-110" y="-565" width="2252" height="2252" xlink:href="logo_Images\logo_ImgID1.png"/>
   </g>
   <path class="fil0" d="M838 550c-4,3 -7,6 -12,8 -6,3 -13,5 -20,5 -4,0 -8,-1 -12,-2 -4,1 -8,2 -12,2 -5,0 -9,-1 -13,-4 -2,1 -4,2 -5,3 -7,3 -14,4 -21,4 -5,0 -9,-1 -14,-2 -5,-1 -9,-4 -13,-7 -4,-3 -8,-8 -10,-13 -2,-3 -3,-7 -3,-10l-4 5c-6,7 -12,14 -19,19 -4,2 -8,5 -12,6 0,0 0,1 0,1 3,7 5,14 5,21 0,11 -2,21 -7,31 -4,9 -10,17 -17,24 -7,7 -15,13 -23,19 -8,5 -17,9 -25,13 -8,3 -17,6 -26,8 -8,2 -16,3 -25,3 -12,0 -24,-2 -35,-6 -11,-4 -21,-9 -30,-17 -9,-8 -16,-17 -21,-27 -5,-11 -8,-24 -8,-36 0,-8 1,-16 3,-24 2,-8 5,-16 9,-23 4,-8 9,-15 14,-22 2,-3 5,-6 8,-8 0,0 0,0 0,-1 -3,-8 -4,-16 -4,-24 0,-8 1,-16 5,-24 3,-7 7,-14 11,-20 5,-6 10,-11 16,-15 6,-4 12,-8 18,-11 6,-3 13,-5 20,-7 6,-1 13,-2 20,-2 8,0 15,1 23,3 7,2 14,5 20,10 6,5 11,11 14,17 1,1 1,3 2,4 6,-1 12,-2 18,-3 9,-1 19,-2 28,-3 3,-3 5,-5 8,-8 4,-4 9,-8 13,-12 5,-4 9,-9 14,-13 6,-5 11,-9 17,-14 3,-2 6,-5 10,-7 5,-3 9,-5 15,-5 8,0 15,4 18,11 1,-1 2,-1 3,-2l15 -11 6 8c5,-4 10,-7 16,-10 8,-4 16,-8 24,-11 9,-3 18,-5 27,-5 4,0 7,0 11,1 4,1 8,2 11,4 4,2 7,5 10,9 4,5 5,10 5,16 0,10 -3,20 -10,28 -5,7 -12,13 -20,18 -8,5 -16,9 -25,13 -6,2 -12,5 -18,6l20 0c1,-1 2,-3 4,-4 4,-4 9,-5 15,-5l3 0 3 1c7,2 13,7 15,13 0,0 0,0 0,0 5,3 8,6 10,11 0,-1 1,-1 1,-2 1,-1 1,-3 2,-4 1,-2 2,-4 3,-6 2,-3 4,-6 6,-8 4,-4 9,-5 15,-5l3 0 3 1c7,2 13,7 15,13 0,0 0,0 0,0 3,2 5,3 7,6l6 -10 83 0 -16 28c-5,8 -9,16 -14,25 -1,2 -2,3 -3,5l-1 28 -26 18 -28 43c-14,21 -37,51 -65,43 -13,-3 -20,-15 -20,-27 0,-4 1,-8 2,-12 5,-18 22,-33 36,-43l0 0c4,-3 8,-5 11,-8 -6,-1 -12,-2 -17,-6 -2,-2 -4,-4 -6,-6 0,0 0,0 0,0 -2,2 -5,4 -8,5 -3,2 -7,3 -10,5 -3,1 -6,2 -8,2 -2,0 -3,0 -5,0 -7,0 -14,-2 -20,-6 -3,-2 -5,-4 -7,-7zm-203 -10c0,-1 0,-1 0,-2 -1,0 -2,1 -2,1 1,0 2,0 2,1zm-68 23c-3,0 -6,0 -8,0 -10,0 -20,-2 -30,-5 -4,-2 -9,-4 -13,-6 -1,1 -2,2 -2,3 -4,4 -7,9 -9,14 -2,4 -4,9 -5,14 -1,5 -2,9 -2,14 0,7 1,13 4,20 2,5 5,10 10,14 5,4 10,8 16,10 8,3 17,4 25,4 4,0 9,-1 13,-2 6,-1 12,-4 18,-6 7,-3 13,-6 19,-10 6,-4 11,-8 16,-13 4,-4 8,-10 11,-15 2,-5 3,-10 3,-16 0,0 0,-2 0,-2 0,-1 -1,-1 -1,-1 -1,-1 -2,-1 -4,-2 -2,-1 -5,-1 -7,-1 -3,0 -7,1 -10,2 -4,2 -7,4 -10,7 -3,3 -6,7 -9,11 -2,4 -5,8 -6,12l-7 17 -34 -12 5 -17c2,-7 5,-14 9,-21 3,-5 6,-9 10,-13zm226 -90c-1,0 -2,0 -2,1 -6,1 -13,3 -19,4 -2,3 -5,7 -7,10 -4,6 -7,12 -11,18 -3,5 -5,11 -8,17 0,1 -1,3 -1,4 1,0 2,0 3,-1 2,-1 4,-2 6,-4 1,-1 3,-3 4,-4 0,-1 0,-1 1,-2 2,-5 5,-10 8,-15 3,-5 7,-9 10,-13 4,-4 8,-8 12,-11 1,-1 3,-2 4,-3zm42 -56c0,0 1,0 1,0 4,-2 7,-3 11,-5 -4,2 -8,3 -11,6 0,0 0,0 0,0zm-308 75c1,-1 2,-1 3,-2 0,-1 0,-2 1,-2 1,-3 2,-6 4,-9 2,-3 4,-6 7,-8 3,-3 7,-5 11,-6l22 -7c-1,0 -1,0 -2,0 -3,0 -7,0 -10,1 -4,1 -8,2 -11,4 -4,2 -7,4 -11,6 -3,2 -6,5 -8,8 -2,3 -4,6 -5,9 -1,2 -1,4 -1,6z"/>
   <path class="fil1" d="M831 524c0,-1 1,-1 1,-2 1,-2 3,-3 4,-5l1 -1c3,-4 5,-7 8,-11 3,-4 5,-8 7,-13 2,-3 3,-6 5,-9 1,-2 1,-3 2,-5 1,-1 1,-3 2,-4 1,-1 1,-2 3,-3 1,-1 3,-2 4,-2l0 0 0 0c2,1 5,2 5,5 0,1 -1,2 -1,3 -1,1 -1,1 -2,2 0,0 0,0 -1,1 1,0 2,0 4,0 3,0 5,1 8,2 3,1 4,4 4,7 0,3 -2,7 -4,10 -3,5 -6,10 -9,15 -3,5 -6,10 -9,15 -1,2 -3,5 -3,7 0,1 0,2 1,2 1,1 3,1 4,1 1,0 2,0 3,0 1,0 2,0 3,-1 2,-1 4,-2 5,-3 2,-1 3,-2 5,-3l-1 -1 2 -1c4,-3 7,-7 11,-11 3,-4 7,-9 10,-13 3,-4 5,-8 7,-13 2,-3 3,-6 5,-9 1,-2 1,-3 2,-5 1,-1 1,-3 2,-4 1,-1 1,-2 3,-3 1,-1 3,-2 4,-2l0 0 0 0c2,1 5,2 5,5 0,1 -1,2 -1,3 -1,1 -1,1 -2,2 0,0 0,0 -1,1 1,0 2,0 4,0 3,0 5,1 8,2 3,1 4,4 4,7 0,3 -2,7 -4,10 -3,5 -6,10 -9,15 -3,5 -6,10 -9,15 -1,2 -3,5 -3,7 0,1 0,2 1,2 1,1 3,1 4,1 1,0 2,0 3,0 1,0 2,0 3,-1 2,-1 4,-2 5,-3 2,-1 4,-3 6,-4 1,-1 2,-1 3,-2 0,-3 1,-6 2,-9 1,-4 3,-8 6,-12l18 -30 13 0 -27 46 -1 4 -1 1c0,0 -1,1 -1,1 0,0 0,0 0,0 0,1 0,3 0,4 0,1 0,3 1,4 1,1 2,1 3,1 3,0 6,-2 8,-4 4,-3 9,-8 12,-13l27 -44 13 0 -2 4c-5,8 -9,16 -14,24 -4,7 -8,14 -13,20 -2,4 -5,8 -7,12l-1 2 15 -11 0 9 -22 16 -30 45c-9,13 -29,42 -48,36 -6,-1 -7,-6 -7,-11 0,-2 0,-5 1,-7 4,-14 19,-27 30,-35 12,-8 25,-17 37,-26 3,-4 7,-9 10,-13 -1,0 -1,0 -2,1 -1,0 -2,1 -3,1 -1,0 -2,0 -3,0 -4,0 -7,-1 -9,-4 -1,-1 -2,-3 -2,-4 0,0 0,0 0,0 -2,2 -4,3 -6,4 -2,1 -5,2 -7,3 -1,1 -3,1 -4,1 -1,0 -2,0 -3,0 -4,0 -7,-1 -11,-3 -3,-2 -5,-5 -5,-9 0,-1 0,-3 0,-4 0,-2 1,-4 2,-5l20 -32c1,-1 3,-4 2,-6 0,0 -1,0 -1,-1 -2,0 -3,0 -5,1 -1,0 -2,1 -3,1 -1,1 -2,1 -2,2 -1,1 -1,1 -2,2 -2,3 -3,5 -5,8 -2,4 -4,8 -7,11 -3,4 -6,8 -9,12 0,0 -1,1 -1,1l-1 4 -1 1c-1,1 -3,2 -4,4 -2,2 -3,3 -5,4 -2,2 -4,3 -6,4 -2,1 -5,2 -7,3 -1,1 -3,1 -4,1 -1,0 -2,0 -3,0 -4,0 -7,-1 -11,-3 -3,-2 -5,-5 -5,-9 0,-1 0,-3 0,-4 0,-2 1,-4 2,-5l20 -32c1,-1 3,-4 2,-6 0,0 -1,0 -1,-1 -2,0 -3,0 -5,1 -1,0 -2,1 -3,1 -1,1 -2,1 -2,2 -1,1 -1,1 -2,2 -2,3 -3,5 -5,8 -2,4 -4,8 -7,11 -3,4 -6,8 -9,12 -3,4 -7,8 -11,12l-1 1c-3,3 -6,5 -10,7 -4,2 -8,3 -12,3 -3,0 -5,-1 -7,-3 -1,-1 -2,-2 -2,-3 -1,1 -2,1 -2,2 -2,1 -4,2 -5,3 -2,1 -4,1 -7,1 -2,0 -4,-1 -5,-2 -1,-1 -2,-2 -3,-4 -1,-1 -1,-3 -1,-4 0,0 0,-1 0,-1 -1,1 -3,3 -4,4 -3,3 -7,6 -12,8 -5,2 -10,3 -15,3 -3,0 -6,0 -9,-1 -3,-1 -6,-2 -8,-4 -2,-2 -4,-4 -6,-7 -1,-3 -2,-6 -2,-10 0,-6 1,-11 3,-17 2,-6 5,-13 8,-19 3,-6 7,-12 10,-18 2,-4 5,-7 7,-10l-8 1 -53 65c-4,5 -10,12 -15,15 -3,2 -7,5 -11,5 -2,0 -4,-1 -5,-3 -1,-2 -2,-4 -2,-6 0,-2 1,-5 1,-7 1,-3 3,-6 4,-8 3,-4 5,-8 8,-12 4,-5 8,-10 12,-16 5,-6 9,-12 14,-17 3,-4 7,-8 11,-12l-11 1c-5,6 -10,11 -15,16 -6,6 -13,12 -20,17 -7,6 -15,11 -23,17 -8,5 -16,10 -24,14 -8,4 -17,7 -25,10 -8,2 -17,4 -25,4 -8,0 -16,-1 -24,-4 -7,-3 -14,-7 -19,-13 -5,4 -10,9 -14,14 -4,5 -8,11 -11,17 -3,6 -5,12 -7,18 -1,6 -2,12 -2,18 0,9 1,18 5,26 3,8 8,14 14,20 6,6 14,10 22,13 10,3 20,5 30,5 5,0 11,-1 16,-2 7,-2 14,-4 20,-7 7,-3 14,-7 21,-11 7,-4 13,-9 19,-15 5,-6 10,-12 13,-19 3,-7 5,-15 5,-23 0,-3 -1,-7 -2,-10 -2,-3 -4,-5 -6,-7 -3,-2 -6,-3 -9,-4 -4,-1 -7,-1 -11,-1 -6,0 -12,1 -17,4 -5,3 -10,6 -14,10 -4,4 -8,9 -11,14 -3,5 -6,10 -8,15l-1 2 -5 -2 1 -2c2,-6 4,-12 8,-17 3,-6 7,-11 12,-15 5,-4 10,-8 16,-11 6,-3 13,-4 19,-4 5,0 9,1 14,2 4,1 8,3 12,6 3,3 6,6 8,10 2,4 3,9 3,14 0,8 -2,17 -5,24 -4,7 -8,14 -14,20 -6,6 -13,11 -20,16 -7,5 -15,8 -23,12 -8,3 -15,5 -23,7 -7,1 -14,2 -21,2 -10,0 -20,-2 -29,-5 -9,-3 -17,-8 -25,-14 -7,-6 -13,-13 -17,-22 -4,-9 -6,-19 -6,-29 0,-7 1,-14 3,-20 2,-7 4,-14 8,-20 3,-7 8,-13 12,-19 5,-6 10,-11 15,-15 -2,-3 -4,-7 -5,-10 -2,-6 -3,-12 -3,-18 0,-6 1,-12 3,-18 2,-6 5,-11 9,-15 4,-5 8,-9 13,-12 5,-4 10,-7 15,-9 5,-2 11,-4 16,-6 5,-1 11,-2 16,-2 6,0 12,1 18,2 5,2 10,4 14,7 4,3 7,7 9,12 2,5 3,10 3,16 0,0 0,0 0,1 11,-3 22,-5 33,-6 11,-1 22,-3 33,-3 4,-4 8,-8 13,-12 4,-4 8,-8 13,-12 4,-4 9,-8 14,-13 5,-5 11,-9 16,-13 3,-2 5,-4 8,-6 2,-1 4,-2 6,-2 2,0 4,2 4,4 0,2 -1,4 -2,5 -1,2 -3,5 -5,7l-31 39 11 -1c4,-5 8,-9 12,-14 5,-5 10,-9 15,-14 5,-4 10,-8 15,-12 4,-3 8,-6 12,-9l2 -2 3 4 -2 2c-4,4 -9,8 -13,11 -5,4 -9,9 -14,13 -4,4 -9,9 -13,13 -2,2 -4,4 -5,6l7 -1c4,-5 9,-9 13,-14 5,-5 11,-11 17,-16 6,-5 12,-11 19,-16 6,-5 13,-9 20,-13 7,-4 14,-7 21,-10 7,-2 14,-4 22,-4 2,0 5,0 7,1 2,1 4,1 6,2 2,1 4,3 5,4 1,2 2,4 2,7 0,7 -2,12 -6,18 -4,6 -10,10 -16,14 -7,5 -15,8 -22,11 -9,3 -17,6 -26,9 -9,3 -18,5 -27,7 -8,2 -16,3 -25,5 -4,5 -8,10 -12,16 -4,6 -8,13 -11,19 -3,6 -6,12 -9,19 -2,4 -3,10 -3,14 0,2 0,4 1,5 1,2 2,3 4,4 2,1 3,2 5,2 2,1 4,1 6,1 4,0 7,-1 10,-2 4,-2 7,-4 10,-6 3,-3 6,-5 8,-8 0,-2 1,-3 1,-4 2,-4 4,-8 6,-12 3,-4 5,-8 9,-11 3,-3 6,-6 10,-9 3,-3 7,-5 11,-7 3,-2 7,-3 10,-3 2,0 4,1 6,2 1,1 1,1 2,2l2 -4 13 0 -2 4c-2,3 -4,6 -6,10 -3,5 -6,9 -9,14 -3,5 -6,10 -9,15 -3,4 -6,9 -8,13 0,1 -1,1 -1,2 0,1 0,1 0,2 0,0 0,0 0,0 1,0 1,0 2,0 3,0 6,-1 8,-3 2,-1 4,-3 6,-5l0 0 2 -1c2,-2 3,-3 5,-5l2 -2zm-62 -70c8,-2 15,-3 23,-5 9,-2 18,-5 27,-8 8,-3 16,-6 24,-9 7,-3 13,-6 19,-10 5,-3 9,-7 12,-11 3,-3 4,-7 4,-12 0,-1 0,-2 -1,-3 -1,-1 -2,-2 -3,-3 -1,-1 -3,-1 -5,-2 -2,0 -4,-1 -5,-1 -6,0 -12,1 -18,3 -7,2 -13,5 -19,9 -7,4 -13,8 -19,13 -6,5 -12,10 -18,15 -5,5 -10,10 -15,15 -2,3 -5,5 -7,8zm-22 -38c-1,1 -3,2 -4,3 -5,4 -10,8 -15,13 -4,4 -8,8 -12,11 -4,4 -7,7 -11,11 -2,2 -4,5 -7,7l10 -1 39 -45zm-20 50l-11 1 -49 65c-1,2 -5,7 -6,11 2,-1 4,-3 5,-3 5,-3 10,-9 13,-14l48 -60zm-48 5c-1,0 -2,0 -4,0 -4,0 -8,1 -12,1 -4,1 -9,1 -13,2 -4,1 -8,1 -13,2 -4,1 -7,1 -11,2 -2,1 -5,1 -7,2 -1,5 -4,9 -6,12 -3,5 -7,9 -12,12 -5,4 -9,7 -15,9 -5,2 -10,3 -16,3 -4,0 -8,-1 -12,-3 -4,-2 -6,-4 -9,-7 -4,2 -9,5 -13,7 -5,3 -9,6 -14,10 5,5 10,9 17,11 7,3 14,4 22,4 7,0 14,-1 21,-4 8,-3 15,-6 23,-10 8,-4 16,-9 23,-14 7,-5 15,-10 22,-16 6,-5 13,-11 19,-16 4,-3 7,-7 10,-10zm-68 12c-9,3 -18,5 -26,9 -9,4 -19,8 -27,12 1,2 3,3 4,4 3,1 6,2 9,2 4,0 8,-1 12,-2 4,-2 9,-4 12,-6 4,-3 7,-6 10,-10 2,-3 4,-5 5,-8zm-92 36c2,-2 4,-3 6,-5 3,-2 6,-4 9,-6 3,-2 6,-3 8,-5 2,-1 3,-2 5,-3 0,-1 0,-2 0,-3 0,-2 0,-3 1,-5 0,-2 1,-3 2,-5 1,-2 2,-3 4,-4 2,-1 3,-2 5,-3l11 -4 -9 8c-2,2 -4,4 -6,7 -1,1 -1,3 -1,5 0,0 0,1 0,1 5,-2 9,-4 14,-7 5,-2 10,-5 16,-7 5,-2 10,-4 15,-5 5,-2 9,-3 14,-4 0,-1 0,-1 0,-2 0,-1 0,-2 0,-2 0,-4 -1,-8 -3,-12 -2,-4 -5,-7 -8,-9 -4,-3 -8,-5 -12,-6 -5,-1 -10,-2 -15,-2 -5,0 -9,1 -14,2 -5,1 -10,3 -14,5 -5,2 -9,5 -13,8 -4,3 -8,7 -11,11 -3,4 -6,8 -7,13 -2,5 -3,10 -3,15 0,5 1,10 3,15 1,3 3,6 4,8zm303 -26c0,-1 0,-2 1,-2 0,0 0,-1 0,-1 0,-1 0,-2 -1,-3 0,0 -1,-1 -2,-1 -2,0 -5,1 -6,3 -3,2 -6,5 -8,8 -3,3 -6,7 -9,11 -3,4 -5,8 -8,12 -2,4 -4,7 -5,11 -1,2 -2,5 -2,8 0,1 0,1 0,2 0,0 0,0 0,0 1,0 3,0 4,-1 2,-1 3,-2 5,-3 2,-1 3,-3 4,-4 1,-2 3,-3 4,-5 1,-1 2,-2 3,-4 1,-2 3,-4 4,-6 2,-3 3,-5 5,-8 2,-2 3,-5 5,-7 1,-2 2,-4 4,-6 1,-1 1,-2 2,-3zm121 82c-8,5 -16,11 -24,17 -9,7 -22,19 -26,31 0,1 -1,3 -1,4 0,1 0,3 1,3 6,2 26,-23 29,-27 7,-9 13,-18 20,-28z"/>
   <path class="fil0" d="M1088 736l7 17 -4 8c-3,5 -6,9 -10,13 -4,4 -8,7 -12,9 -4,3 -9,5 -13,6 -5,2 -10,3 -15,3 -5,0 -10,-1 -15,-4 -2,1 -4,2 -6,3 -7,3 -14,4 -21,4 -5,0 -9,-1 -14,-2 -5,-1 -9,-4 -13,-7 -4,-3 -8,-8 -10,-13 -2,-3 -3,-7 -3,-10l-4 5c-6,7 -12,14 -19,19 -4,2 -8,5 -12,6 0,0 0,1 0,1 3,7 5,14 5,21 0,11 -2,21 -7,31 -4,9 -10,17 -17,24 -7,7 -15,13 -23,19 -8,5 -17,9 -25,13 -8,3 -17,6 -26,8 -8,2 -16,3 -25,3 -12,0 -24,-2 -35,-6 -11,-4 -21,-9 -30,-17 -9,-8 -16,-17 -21,-27 -5,-11 -8,-24 -8,-36 0,-8 1,-16 3,-24 2,-8 5,-16 9,-23 4,-8 9,-15 14,-22 2,-3 5,-6 8,-8 0,0 0,0 0,-1 -3,-8 -4,-16 -4,-24 0,-8 1,-17 5,-24 3,-7 7,-14 11,-20 5,-6 10,-11 16,-15 6,-4 12,-8 18,-11 6,-3 13,-5 20,-7 6,-1 13,-2 20,-2 8,0 15,1 23,3 7,2 14,5 20,10 6,5 11,11 14,17 1,1 1,3 2,4 6,-1 12,-2 18,-3 9,-1 19,-2 28,-3 3,-3 5,-5 8,-8 4,-4 9,-8 13,-12 5,-4 9,-9 14,-13 6,-5 11,-9 17,-14 3,-2 6,-5 10,-7 5,-3 9,-5 15,-5 8,0 15,4 18,11 1,-1 2,-1 3,-2l15 -11 6 8c5,-4 10,-7 16,-10 8,-4 16,-8 24,-11 9,-3 18,-5 27,-5 4,0 7,0 11,1 4,1 8,2 11,4 4,2 7,5 10,9 4,5 5,10 5,16 0,10 -3,20 -10,28 -5,7 -12,13 -20,18 -8,5 -16,9 -25,13 -7,3 -15,6 -22,8 3,1 5,2 7,4 5,4 8,10 8,17 0,7 -3,14 -7,20 0,0 -1,1 -1,1zm-196 33c0,-1 0,-1 0,-2 -1,0 -2,1 -2,1 1,0 2,0 2,1zm-68 23c-3,0 -6,0 -8,0 -10,0 -20,-2 -30,-5 -4,-2 -9,-4 -13,-6 -1,1 -2,2 -2,3 -4,4 -7,9 -9,14 -2,4 -4,9 -5,14 -1,5 -2,9 -2,14 0,7 1,13 4,20 2,5 5,10 10,14 5,4 10,8 16,10 8,3 17,4 25,4 4,0 9,-1 13,-2 6,-1 12,-4 18,-6 7,-3 13,-6 19,-10 6,-4 11,-8 16,-13 4,-4 8,-10 11,-15 2,-5 3,-10 3,-16 0,0 0,-2 0,-2 0,-1 -1,-1 -1,-1 -1,-1 -2,-1 -4,-2 -2,-1 -5,-1 -7,-1 -3,0 -7,1 -10,2 -4,2 -7,4 -10,7 -3,3 -6,7 -9,11 -2,4 -5,8 -6,12l-7 17 -34 -12 5 -17c2,-7 5,-14 9,-21 3,-5 6,-9 10,-13zm221 -89c-5,1 -11,2 -16,3 -2,3 -5,7 -7,10 -4,6 -7,12 -11,18 -3,5 -5,11 -8,17 0,1 -1,3 -1,4 1,0 2,0 3,-1 2,-1 4,-2 6,-4 1,-1 2,-2 3,-3 0,0 0,0 0,0 1,-5 3,-9 5,-14 2,-5 5,-9 8,-13 3,-4 7,-8 11,-12 2,-2 4,-4 6,-5zm47 -57c0,0 1,0 1,0 4,-2 7,-3 11,-5 -4,2 -8,3 -11,6 0,0 0,0 0,0zm-308 75c1,-1 2,-1 3,-2 0,-1 0,-2 1,-3 1,-3 2,-6 4,-9 2,-3 4,-6 7,-8 3,-3 7,-5 11,-6l22 -7c-1,0 -1,0 -2,0 -3,0 -7,0 -10,1 -4,1 -8,2 -11,4 -4,2 -7,4 -11,6 -3,2 -6,5 -8,8 -2,3 -4,6 -5,9 -1,2 -1,4 -1,6z"/>
   <path class="fil1" d="M1020 691c-4,5 -8,10 -12,16 -4,6 -8,13 -11,19 -3,6 -6,12 -9,19 -2,4 -3,10 -3,14 0,2 0,4 1,5 1,2 2,3 4,4 2,1 3,2 5,2 2,1 4,1 6,1 4,0 7,-1 10,-2 4,-2 7,-4 10,-6 3,-2 5,-5 8,-8 0,-1 1,-3 1,-4 1,-4 3,-7 4,-11 2,-4 4,-7 7,-11 3,-3 5,-7 9,-10 3,-3 7,-5 10,-7 4,-2 8,-3 12,-4l1 0 0 0c2,0 3,0 5,2 1,1 2,3 2,5 0,4 -1,7 -4,9 -2,3 -5,5 -8,7 -4,2 -7,5 -11,7 -4,2 -8,5 -12,7 -2,3 -3,7 -5,10 -1,3 -2,6 -2,9 0,1 0,3 1,4 1,1 2,1 3,1 3,0 6,-1 8,-2 3,-1 6,-3 9,-5 3,-2 5,-4 8,-6 2,-2 4,-4 5,-7l2 -5 3 7 -1 1c-2,3 -4,6 -7,9 -3,3 -6,5 -9,7 -3,2 -7,4 -10,5 -3,1 -7,2 -10,2 -3,0 -6,-1 -9,-3 -2,-2 -3,-5 -3,-7 -1,1 -2,2 -4,4 -3,3 -7,6 -12,8 -5,2 -10,3 -15,3 -3,0 -6,0 -9,-1 -3,-1 -6,-2 -8,-4 -2,-2 -4,-4 -6,-7 -1,-3 -2,-6 -2,-10 0,-6 1,-11 3,-17 2,-6 5,-13 8,-19 3,-6 7,-12 10,-18 2,-4 5,-7 7,-10l-8 1 -53 65c-4,5 -10,12 -15,15 -3,2 -7,5 -11,5 -2,0 -4,-1 -5,-3 -1,-2 -2,-4 -2,-6 0,-2 1,-5 1,-7 1,-3 3,-6 4,-8 3,-4 5,-8 8,-12 4,-5 8,-10 12,-16 5,-6 9,-12 14,-17 3,-4 7,-8 11,-12l-11 1c-5,6 -10,11 -15,16 -6,6 -13,12 -20,17 -7,6 -15,11 -23,17 -8,5 -16,10 -24,14 -8,4 -17,7 -25,10 -8,2 -17,4 -25,4 -8,0 -16,-1 -24,-4 -7,-3 -14,-7 -19,-13 -5,4 -10,9 -14,14 -4,5 -8,11 -11,17 -3,6 -5,12 -7,18 -1,6 -2,12 -2,18 0,9 1,18 5,26 3,8 8,14 14,20 6,6 14,10 22,13 10,3 20,5 30,5 5,0 11,-1 16,-2 7,-2 14,-4 20,-7 7,-3 14,-7 21,-11 7,-4 13,-9 19,-15 5,-6 10,-12 13,-19 3,-7 5,-15 5,-23 0,-3 -1,-7 -2,-10 -2,-3 -4,-5 -6,-7 -3,-2 -6,-3 -9,-4 -4,-1 -7,-1 -11,-1 -6,0 -12,1 -17,4 -5,3 -10,6 -14,10 -4,4 -8,9 -11,14 -3,5 -6,10 -8,15l-1 2 -5 -2 1 -2c2,-6 4,-12 8,-17 3,-6 7,-11 12,-15 5,-4 10,-8 16,-11 6,-3 13,-4 19,-4 5,0 9,1 14,2 4,1 8,3 12,6 3,3 6,6 8,10 2,4 3,9 3,14 0,8 -2,17 -5,24 -4,7 -8,14 -14,20 -6,6 -13,11 -20,16 -7,5 -15,8 -23,12 -8,3 -15,5 -23,7 -7,1 -14,2 -21,2 -10,0 -20,-2 -29,-5 -9,-3 -17,-8 -25,-14 -7,-6 -13,-13 -17,-22 -4,-9 -6,-19 -6,-29 0,-7 1,-14 3,-20 2,-7 4,-14 8,-20 3,-7 8,-13 12,-19 5,-6 10,-11 15,-15 -2,-3 -4,-7 -5,-10 -2,-6 -3,-12 -3,-18 0,-6 1,-12 3,-18 2,-6 5,-11 9,-15 4,-5 8,-9 13,-12 5,-4 10,-7 15,-9 5,-2 11,-4 16,-6 5,-1 11,-2 16,-2 6,0 12,1 18,2 5,2 10,4 14,7 4,3 7,7 9,12 2,5 3,10 3,16 0,0 0,0 0,1 11,-3 22,-5 33,-6 11,-1 22,-3 33,-3 4,-4 8,-8 13,-12 4,-4 8,-8 13,-12 4,-4 9,-8 14,-13 5,-5 11,-9 16,-13 3,-2 5,-4 8,-6 2,-1 4,-2 6,-2 2,0 4,2 4,4 0,2 -1,4 -2,5 -1,2 -3,5 -5,7l-31 39 11 -1c4,-5 8,-9 12,-14 5,-5 10,-9 15,-14 5,-4 10,-8 15,-12 4,-3 8,-6 12,-9l2 -2 3 4 -2 2c-4,4 -9,8 -13,11 -5,4 -9,9 -14,13 -4,4 -9,9 -13,13 -2,2 -4,4 -5,6l7 -1c4,-5 9,-9 13,-14 5,-5 11,-11 17,-16 6,-5 12,-11 19,-16 6,-5 13,-9 20,-13 7,-4 14,-7 21,-10 7,-2 14,-4 22,-4 2,0 5,0 7,1 2,1 4,1 6,2 2,1 4,3 5,4 1,2 2,4 2,7 0,7 -2,12 -6,18 -4,6 -10,10 -16,14 -7,5 -15,8 -22,11 -9,3 -17,6 -26,9 -9,3 -18,5 -27,7 -8,2 -16,3 -25,5zm6 -8c8,-2 15,-3 23,-5 9,-2 18,-5 27,-8 8,-3 16,-6 24,-9 7,-3 13,-6 19,-10 5,-3 9,-7 12,-11 3,-3 4,-7 4,-12 0,-1 0,-2 -1,-3 -1,-1 -2,-2 -3,-3 -1,-1 -3,-1 -5,-2 -2,0 -4,-1 -5,-1 -6,0 -12,1 -18,3 -7,2 -13,5 -19,9 -7,4 -13,8 -19,13 -6,5 -12,10 -18,15 -5,5 -10,10 -15,15 -2,3 -5,5 -7,8zm-22 -38c-1,1 -3,2 -4,3 -5,4 -10,8 -15,13 -4,4 -8,8 -12,11 -4,4 -7,7 -11,11 -2,2 -4,5 -7,7l10 -1 39 -44zm-20 50l-11 1 -49 65c-1,2 -5,7 -6,11 2,-1 4,-3 5,-3 5,-3 10,-9 13,-14l48 -60zm-48 5c-1,0 -2,0 -4,0 -4,0 -8,1 -12,1 -4,1 -9,1 -13,2 -4,1 -8,1 -13,2 -4,1 -7,1 -11,2 -2,1 -5,1 -7,2 -1,5 -4,9 -6,12 -3,5 -7,9 -12,12 -5,4 -9,7 -15,9 -5,2 -10,3 -16,3 -4,0 -8,-1 -12,-3 -4,-2 -6,-4 -9,-7 -4,2 -9,5 -13,7 -5,3 -9,6 -14,10 5,5 10,9 17,11 7,3 14,4 22,4 7,0 14,-1 21,-4 8,-3 15,-6 23,-10 8,-4 16,-9 23,-14 7,-5 15,-10 22,-16 6,-5 13,-11 19,-16 4,-3 7,-7 10,-10zm-68 12c-9,3 -18,5 -26,9 -9,4 -19,8 -27,12 1,2 3,3 4,4 3,1 6,2 9,2 4,0 8,-1 12,-2 4,-2 9,-4 12,-6 4,-3 7,-6 10,-10 2,-3 4,-5 5,-8zm-92 36c2,-2 4,-3 6,-5 3,-2 6,-4 9,-6 3,-2 6,-3 8,-5 2,-1 3,-2 5,-3 0,-1 0,-2 0,-3 0,-2 0,-3 1,-5 0,-2 1,-3 2,-5 1,-2 2,-3 4,-4 2,-1 3,-2 5,-3l11 -4 -9 8c-2,2 -4,4 -6,7 -1,1 -1,3 -1,5 0,0 0,1 0,1 5,-2 9,-4 14,-7 5,-2 10,-5 16,-7 5,-2 10,-4 15,-5 5,-2 9,-3 14,-4 0,-1 0,-1 0,-2 0,-1 0,-2 0,-2 0,-4 -1,-8 -3,-12 -2,-4 -5,-7 -8,-9 -4,-3 -8,-5 -12,-6 -5,-1 -10,-2 -15,-2 -5,0 -9,1 -14,2 -5,1 -10,3 -14,5 -5,2 -9,5 -13,8 -4,3 -8,7 -11,11 -3,4 -6,8 -7,13 -2,5 -3,10 -3,15 0,5 1,10 3,15 1,3 3,6 4,8zm298 -32c0,0 0,0 -1,0 -2,0 -4,1 -6,2 -2,1 -4,3 -6,4 -2,2 -4,4 -5,6 -2,2 -3,4 -5,6 0,0 0,1 -1,1 1,-1 3,-2 4,-2 3,-2 7,-4 10,-7 2,-2 5,-4 7,-6 1,-1 2,-3 2,-4z"/>
  </g>
 </g>
</svg>
